<svg width="55" height="1317" viewBox="0 0 55 1317" fill="none" xmlns="http://www.w3.org/2000/svg">
<g filter="url(#filter0_d_477_422)">
<path d="M13.5118 472.333L13.5118 586.764C13.514 584.591 15.2767 582.829 17.4508 582.829L50.0408 582.83C52.8023 582.831 55.041 580.592 55.041 577.83L55.041 481.273C55.041 478.512 52.8026 476.273 50.0412 476.273L17.4505 476.272C15.2752 476.272 13.5118 474.508 13.5118 472.333Z" fill="#ECEEF5"/>
<mask id="path-2-outside-1_477_422" maskUnits="userSpaceOnUse" x="25" y="490" width="16" height="81" fill="black">
<rect fill="white" x="25" y="490" width="16" height="81"/>
<path d="M26 496.381H29.3754V490.265H30.9621L40.0977 496.698V498.112H30.9621V500.016H29.3754V498.112H26V496.381ZM30.9621 496.381H37.3185L30.9621 491.967V496.381ZM32.9527 501.795C34.6195 501.795 35.9594 501.965 36.9723 502.305C37.9917 502.651 38.777 503.161 39.3284 503.834C39.8797 504.513 40.1554 505.366 40.1554 506.392C40.1554 507.148 40.0015 507.812 39.6938 508.382C39.3925 508.953 38.9533 509.424 38.3763 509.796C37.8058 510.168 37.107 510.459 36.28 510.671C35.4594 510.883 34.3503 510.988 32.9527 510.988C31.2987 510.988 29.962 510.818 28.9426 510.479C27.9297 510.139 27.1444 509.629 26.5866 508.95C26.0353 508.276 25.7596 507.424 25.7596 506.392C25.7596 505.033 26.2468 503.965 27.2213 503.189C28.3945 502.26 30.305 501.795 32.9527 501.795ZM32.9527 503.574C30.6383 503.574 29.0965 503.843 28.3272 504.382C27.5643 504.927 27.1828 505.597 27.1828 506.392C27.1828 507.187 27.5675 507.853 28.3368 508.392C29.1061 508.937 30.6447 509.209 32.9527 509.209C35.2734 509.209 36.8153 508.937 37.5782 508.392C38.3411 507.853 38.7225 507.18 38.7225 506.372C38.7225 505.577 38.386 504.943 37.7128 504.468C36.8537 503.872 35.267 503.574 32.9527 503.574ZM26 518.306H29.3754V512.19H30.9621L40.0977 518.624V520.037H30.9621V521.941H29.3754V520.037H26V518.306ZM30.9621 518.306H37.3185L30.9621 513.892V518.306ZM26 524.692H27.9714V526.663H26V524.692ZM29.2888 536.674L29.0676 538.462C28.0227 538.18 27.2117 537.658 26.6347 536.895C26.0577 536.132 25.7692 535.158 25.7692 533.972C25.7692 532.478 26.2276 531.292 27.1444 530.414C28.0675 529.542 29.3593 529.106 31.0198 529.106C32.7379 529.106 34.0714 529.548 35.0202 530.433C35.969 531.317 36.4434 532.465 36.4434 533.875C36.4434 535.241 35.9786 536.356 35.0491 537.222C34.1195 538.087 32.8116 538.52 31.1256 538.52C31.023 538.52 30.8691 538.517 30.664 538.511V530.894C29.5421 530.958 28.683 531.276 28.0868 531.846C27.4905 532.417 27.1924 533.129 27.1924 533.981C27.1924 534.616 27.3591 535.158 27.6925 535.606C28.0259 536.055 28.558 536.411 29.2888 536.674ZM32.0872 530.99V536.693C32.9463 536.616 33.5906 536.398 34.0201 536.039C34.6868 535.488 35.0202 534.773 35.0202 533.895C35.0202 533.1 34.7542 532.43 34.222 531.885C33.6899 531.346 32.9783 531.048 32.0872 530.99ZM26 540.626H36.2126V542.184H34.6644C35.3888 542.581 35.8665 542.947 36.0972 543.28C36.328 543.62 36.4434 543.992 36.4434 544.396C36.4434 544.979 36.2575 545.572 35.8857 546.175L34.2797 545.579C34.5298 545.155 34.6548 544.732 34.6548 544.309C34.6548 543.931 34.5394 543.591 34.3086 543.29C34.0842 542.989 33.7701 542.774 33.3662 542.646C32.7507 542.453 32.0776 542.357 31.3467 542.357H26V540.626ZM26 547.185H36.2126V548.742H34.6644C35.3888 549.14 35.8665 549.505 36.0972 549.839C36.328 550.178 36.4434 550.55 36.4434 550.954C36.4434 551.538 36.2575 552.131 35.8857 552.733L34.2797 552.137C34.5298 551.714 34.6548 551.291 34.6548 550.868C34.6548 550.489 34.5394 550.15 34.3086 549.848C34.0842 549.547 33.7701 549.332 33.3662 549.204C32.7507 549.012 32.0776 548.916 31.3467 548.916H26V547.185ZM31.1063 553.118C32.9976 553.118 34.3983 553.644 35.3087 554.695C36.0652 555.573 36.4434 556.644 36.4434 557.907C36.4434 559.311 35.9819 560.458 35.0587 561.35C34.1419 562.241 32.8725 562.686 31.2506 562.686C29.9363 562.686 28.901 562.487 28.1445 562.09C27.3944 561.699 26.811 561.125 26.3943 560.369C25.9776 559.619 25.7692 558.798 25.7692 557.907C25.7692 556.477 26.2276 555.32 27.1444 554.435C28.0611 553.557 29.3818 553.118 31.1063 553.118ZM31.1063 554.897C29.7985 554.897 28.8176 555.182 28.1637 555.753C27.5162 556.323 27.1924 557.041 27.1924 557.907C27.1924 558.766 27.5194 559.481 28.1733 560.051C28.8272 560.622 29.8241 560.907 31.164 560.907C32.427 560.907 33.3822 560.619 34.0297 560.042C34.6836 559.471 35.0106 558.76 35.0106 557.907C35.0106 557.041 34.6868 556.323 34.0393 555.753C33.3918 555.182 32.4142 554.897 31.1063 554.897ZM26 564.706H36.2126V566.264H34.6644C35.3888 566.661 35.8665 567.026 36.0972 567.36C36.328 567.7 36.4434 568.071 36.4434 568.475C36.4434 569.059 36.2575 569.652 35.8857 570.254L34.2797 569.658C34.5298 569.235 34.6548 568.812 34.6548 568.389C34.6548 568.011 34.5394 567.671 34.3086 567.369C34.0842 567.068 33.7701 566.853 33.3662 566.725C32.7507 566.533 32.0776 566.437 31.3467 566.437H26V564.706Z"/>
</mask>
<path d="M26 496.381H29.3754V490.265H30.9621L40.0977 496.698V498.112H30.9621V500.016H29.3754V498.112H26V496.381ZM30.9621 496.381H37.3185L30.9621 491.967V496.381ZM32.9527 501.795C34.6195 501.795 35.9594 501.965 36.9723 502.305C37.9917 502.651 38.777 503.161 39.3284 503.834C39.8797 504.513 40.1554 505.366 40.1554 506.392C40.1554 507.148 40.0015 507.812 39.6938 508.382C39.3925 508.953 38.9533 509.424 38.3763 509.796C37.8058 510.168 37.107 510.459 36.28 510.671C35.4594 510.883 34.3503 510.988 32.9527 510.988C31.2987 510.988 29.962 510.818 28.9426 510.479C27.9297 510.139 27.1444 509.629 26.5866 508.95C26.0353 508.276 25.7596 507.424 25.7596 506.392C25.7596 505.033 26.2468 503.965 27.2213 503.189C28.3945 502.26 30.305 501.795 32.9527 501.795ZM32.9527 503.574C30.6383 503.574 29.0965 503.843 28.3272 504.382C27.5643 504.927 27.1828 505.597 27.1828 506.392C27.1828 507.187 27.5675 507.853 28.3368 508.392C29.1061 508.937 30.6447 509.209 32.9527 509.209C35.2734 509.209 36.8153 508.937 37.5782 508.392C38.3411 507.853 38.7225 507.18 38.7225 506.372C38.7225 505.577 38.386 504.943 37.7128 504.468C36.8537 503.872 35.267 503.574 32.9527 503.574ZM26 518.306H29.3754V512.19H30.9621L40.0977 518.624V520.037H30.9621V521.941H29.3754V520.037H26V518.306ZM30.9621 518.306H37.3185L30.9621 513.892V518.306ZM26 524.692H27.9714V526.663H26V524.692ZM29.2888 536.674L29.0676 538.462C28.0227 538.18 27.2117 537.658 26.6347 536.895C26.0577 536.132 25.7692 535.158 25.7692 533.972C25.7692 532.478 26.2276 531.292 27.1444 530.414C28.0675 529.542 29.3593 529.106 31.0198 529.106C32.7379 529.106 34.0714 529.548 35.0202 530.433C35.969 531.317 36.4434 532.465 36.4434 533.875C36.4434 535.241 35.9786 536.356 35.0491 537.222C34.1195 538.087 32.8116 538.52 31.1256 538.52C31.023 538.52 30.8691 538.517 30.664 538.511V530.894C29.5421 530.958 28.683 531.276 28.0868 531.846C27.4905 532.417 27.1924 533.129 27.1924 533.981C27.1924 534.616 27.3591 535.158 27.6925 535.606C28.0259 536.055 28.558 536.411 29.2888 536.674ZM32.0872 530.99V536.693C32.9463 536.616 33.5906 536.398 34.0201 536.039C34.6868 535.488 35.0202 534.773 35.0202 533.895C35.0202 533.1 34.7542 532.43 34.222 531.885C33.6899 531.346 32.9783 531.048 32.0872 530.99ZM26 540.626H36.2126V542.184H34.6644C35.3888 542.581 35.8665 542.947 36.0972 543.28C36.328 543.62 36.4434 543.992 36.4434 544.396C36.4434 544.979 36.2575 545.572 35.8857 546.175L34.2797 545.579C34.5298 545.155 34.6548 544.732 34.6548 544.309C34.6548 543.931 34.5394 543.591 34.3086 543.29C34.0842 542.989 33.7701 542.774 33.3662 542.646C32.7507 542.453 32.0776 542.357 31.3467 542.357H26V540.626ZM26 547.185H36.2126V548.742H34.6644C35.3888 549.14 35.8665 549.505 36.0972 549.839C36.328 550.178 36.4434 550.55 36.4434 550.954C36.4434 551.538 36.2575 552.131 35.8857 552.733L34.2797 552.137C34.5298 551.714 34.6548 551.291 34.6548 550.868C34.6548 550.489 34.5394 550.15 34.3086 549.848C34.0842 549.547 33.7701 549.332 33.3662 549.204C32.7507 549.012 32.0776 548.916 31.3467 548.916H26V547.185ZM31.1063 553.118C32.9976 553.118 34.3983 553.644 35.3087 554.695C36.0652 555.573 36.4434 556.644 36.4434 557.907C36.4434 559.311 35.9819 560.458 35.0587 561.35C34.1419 562.241 32.8725 562.686 31.2506 562.686C29.9363 562.686 28.901 562.487 28.1445 562.09C27.3944 561.699 26.811 561.125 26.3943 560.369C25.9776 559.619 25.7692 558.798 25.7692 557.907C25.7692 556.477 26.2276 555.32 27.1444 554.435C28.0611 553.557 29.3818 553.118 31.1063 553.118ZM31.1063 554.897C29.7985 554.897 28.8176 555.182 28.1637 555.753C27.5162 556.323 27.1924 557.041 27.1924 557.907C27.1924 558.766 27.5194 559.481 28.1733 560.051C28.8272 560.622 29.8241 560.907 31.164 560.907C32.427 560.907 33.3822 560.619 34.0297 560.042C34.6836 559.471 35.0106 558.76 35.0106 557.907C35.0106 557.041 34.6868 556.323 34.0393 555.753C33.3918 555.182 32.4142 554.897 31.1063 554.897ZM26 564.706H36.2126V566.264H34.6644C35.3888 566.661 35.8665 567.026 36.0972 567.36C36.328 567.7 36.4434 568.071 36.4434 568.475C36.4434 569.059 36.2575 569.652 35.8857 570.254L34.2797 569.658C34.5298 569.235 34.6548 568.812 34.6548 568.389C34.6548 568.011 34.5394 567.671 34.3086 567.369C34.0842 567.068 33.7701 566.853 33.3662 566.725C32.7507 566.533 32.0776 566.437 31.3467 566.437H26V564.706Z" fill="#C738C6"/>
<path d="M26 496.381V496.181H25.8V496.381H26ZM29.3754 496.381V496.581H29.5754V496.381H29.3754ZM29.3754 490.265V490.065H29.1754V490.265H29.3754ZM30.9621 490.265L31.0772 490.101L31.0254 490.065H30.9621V490.265ZM40.0977 496.698H40.2977V496.595L40.2128 496.535L40.0977 496.698ZM40.0977 498.112V498.312H40.2977V498.112H40.0977ZM30.9621 498.112V497.912H30.7621V498.112H30.9621ZM30.9621 500.016V500.216H31.1621V500.016H30.9621ZM29.3754 500.016H29.1754V500.216H29.3754V500.016ZM29.3754 498.112H29.5754V497.912H29.3754V498.112ZM26 498.112H25.8V498.312H26V498.112ZM30.9621 496.381H30.7621V496.581H30.9621V496.381ZM37.3185 496.381V496.581H37.9572L37.4326 496.217L37.3185 496.381ZM30.9621 491.967L31.0762 491.803L30.7621 491.585V491.967H30.9621ZM26 496.381V496.581H29.3754V496.381V496.181H26V496.381ZM29.3754 496.381H29.5754V490.265H29.3754H29.1754V496.381H29.3754ZM29.3754 490.265V490.465H30.9621V490.265V490.065H29.3754V490.265ZM30.9621 490.265L30.8469 490.428L39.9825 496.862L40.0977 496.698L40.2128 496.535L31.0772 490.101L30.9621 490.265ZM40.0977 496.698H39.8977V498.112H40.0977H40.2977V496.698H40.0977ZM40.0977 498.112V497.912H30.9621V498.112V498.312H40.0977V498.112ZM30.9621 498.112H30.7621V500.016H30.9621H31.1621V498.112H30.9621ZM30.9621 500.016V499.816H29.3754V500.016V500.216H30.9621V500.016ZM29.3754 500.016H29.5754V498.112H29.3754H29.1754V500.016H29.3754ZM29.3754 498.112V497.912H26V498.112V498.312H29.3754V498.112ZM26 498.112H26.2V496.381H26H25.8V498.112H26ZM30.9621 496.381V496.581H37.3185V496.381V496.181H30.9621V496.381ZM37.3185 496.381L37.4326 496.217L31.0762 491.803L30.9621 491.967L30.848 492.131L37.2045 496.545L37.3185 496.381ZM30.9621 491.967H30.7621V496.381H30.9621H31.1621V491.967H30.9621ZM36.9723 502.305L37.0367 502.115L37.0359 502.115L36.9723 502.305ZM39.3284 503.834L39.4837 503.708L39.4831 503.707L39.3284 503.834ZM39.6938 508.382L39.5178 508.287L39.5169 508.289L39.6938 508.382ZM38.3763 509.796L38.268 509.628L38.2671 509.628L38.3763 509.796ZM36.28 510.671L36.2304 510.477L36.23 510.477L36.28 510.671ZM28.9426 510.479L28.879 510.668L28.8794 510.668L28.9426 510.479ZM26.5866 508.95L26.4319 509.076L26.432 509.077L26.5866 508.95ZM27.2213 503.189L27.0971 503.033L27.0967 503.033L27.2213 503.189ZM28.3272 504.382L28.2125 504.218L28.2109 504.219L28.3272 504.382ZM28.3368 508.392L28.4524 508.229L28.4515 508.228L28.3368 508.392ZM37.5782 508.392L37.4628 508.228L37.4619 508.229L37.5782 508.392ZM37.7128 504.468L37.828 504.305L37.8268 504.304L37.7128 504.468ZM32.9527 501.795V501.995C34.6086 501.995 35.9245 502.164 36.9087 502.494L36.9723 502.305L37.0359 502.115C35.9944 501.766 34.6304 501.595 32.9527 501.595V501.795ZM36.9723 502.305L36.908 502.494C37.9004 502.831 38.651 503.322 39.1736 503.96L39.3284 503.834L39.4831 503.707C38.903 502.999 38.083 502.471 37.0367 502.115L36.9723 502.305ZM39.3284 503.834L39.1731 503.96C39.6907 504.598 39.9554 505.404 39.9554 506.392H40.1554H40.3554C40.3554 505.328 40.0687 504.429 39.4837 503.708L39.3284 503.834ZM40.1554 506.392H39.9554C39.9554 507.121 39.8073 507.75 39.5178 508.287L39.6938 508.382L39.8698 508.477C40.1957 507.873 40.3554 507.176 40.3554 506.392H40.1554ZM39.6938 508.382L39.5169 508.289C39.2327 508.827 38.818 509.273 38.268 509.628L38.3763 509.796L38.4847 509.964C39.0886 509.575 39.5523 509.079 39.8706 508.476L39.6938 508.382ZM38.3763 509.796L38.2671 509.628C37.7188 509.986 37.0414 510.27 36.2304 510.477L36.28 510.671L36.3295 510.865C37.1726 510.649 37.8927 510.35 38.4855 509.963L38.3763 509.796ZM36.28 510.671L36.23 510.477C35.4328 510.683 34.3428 510.788 32.9527 510.788V510.988V511.188C34.3577 511.188 35.4859 511.082 36.3299 510.865L36.28 510.671ZM32.9527 510.988V510.788C31.3099 510.788 29.9969 510.619 29.0059 510.289L28.9426 510.479L28.8794 510.668C29.927 511.018 31.2874 511.188 32.9527 511.188V510.988ZM28.9426 510.479L29.0062 510.289C28.0212 509.959 27.2704 509.468 26.7412 508.823L26.5866 508.95L26.432 509.077C27.0183 509.791 27.8382 510.319 28.879 510.668L28.9426 510.479ZM26.5866 508.95L26.7413 508.823C26.2245 508.192 25.9596 507.387 25.9596 506.392H25.7596H25.5596C25.5596 507.461 25.846 508.361 26.4319 509.076L26.5866 508.95ZM25.7596 506.392H25.9596C25.9596 505.087 26.4238 504.08 27.3458 503.346L27.2213 503.189L27.0967 503.033C26.0698 503.85 25.5596 504.978 25.5596 506.392H25.7596ZM27.2213 503.189L27.3455 503.346C28.465 502.459 30.3191 501.995 32.9527 501.995V501.795V501.595C30.2908 501.595 28.324 502.061 27.0971 503.033L27.2213 503.189ZM32.9527 503.574V503.374C31.7889 503.374 30.8124 503.442 30.0261 503.579C29.2432 503.716 28.632 503.924 28.2125 504.218L28.3272 504.382L28.4419 504.546C28.7916 504.301 29.3361 504.106 30.0949 503.973C30.8505 503.841 31.8021 503.774 32.9527 503.774V503.574ZM28.3272 504.382L28.2109 504.219C27.4062 504.794 26.9828 505.52 26.9828 506.392H27.1828H27.3828C27.3828 505.673 27.7223 505.06 28.4434 504.545L28.3272 504.382ZM27.1828 506.392H26.9828C26.9828 507.264 27.4104 507.988 28.2221 508.556L28.3368 508.392L28.4515 508.228C27.7245 507.719 27.3828 507.109 27.3828 506.392H27.1828ZM28.3368 508.392L28.2212 508.555C28.6408 508.852 29.2512 509.063 30.0329 509.202C30.8177 509.341 31.792 509.409 32.9527 509.409V509.209V509.009C31.8054 509.009 30.8564 508.941 30.1026 508.808C29.3456 508.674 28.8021 508.476 28.4524 508.229L28.3368 508.392ZM32.9527 509.209V509.409C34.1197 509.409 35.098 509.341 35.8844 509.202C36.6675 509.063 37.2777 508.852 37.6944 508.555L37.5782 508.392L37.4619 508.229C37.1158 508.476 36.5736 508.674 35.8148 508.808C35.0594 508.941 34.1064 509.009 32.9527 509.009V509.209ZM37.5782 508.392L37.6935 508.555C38.5 507.986 38.9225 507.256 38.9225 506.372H38.7225H38.5225C38.5225 507.104 38.1822 507.721 37.4628 508.228L37.5782 508.392ZM38.7225 506.372H38.9225C38.9225 505.51 38.5521 504.815 37.828 504.305L37.7128 504.468L37.5976 504.632C38.2199 505.07 38.5225 505.645 38.5225 506.372H38.7225ZM37.7128 504.468L37.8268 504.304C37.365 503.984 36.7229 503.753 35.9154 503.601C35.1059 503.449 34.1174 503.374 32.9527 503.374V503.574V503.774C34.1023 503.774 35.0643 503.848 35.8415 503.994C36.6208 504.141 37.2015 504.357 37.5988 504.633L37.7128 504.468ZM26 518.306V518.106H25.8V518.306H26ZM29.3754 518.306V518.506H29.5754V518.306H29.3754ZM29.3754 512.19V511.99H29.1754V512.19H29.3754ZM30.9621 512.19L31.0772 512.027L31.0254 511.99H30.9621V512.19ZM40.0977 518.624H40.2977V518.52L40.2128 518.46L40.0977 518.624ZM40.0977 520.037V520.237H40.2977V520.037H40.0977ZM30.9621 520.037V519.837H30.7621V520.037H30.9621ZM30.9621 521.941V522.141H31.1621V521.941H30.9621ZM29.3754 521.941H29.1754V522.141H29.3754V521.941ZM29.3754 520.037H29.5754V519.837H29.3754V520.037ZM26 520.037H25.8V520.237H26V520.037ZM30.9621 518.306H30.7621V518.506H30.9621V518.306ZM37.3185 518.306V518.506H37.9572L37.4326 518.142L37.3185 518.306ZM30.9621 513.892L31.0762 513.728L30.7621 513.51V513.892H30.9621ZM26 518.306V518.506H29.3754V518.306V518.106H26V518.306ZM29.3754 518.306H29.5754V512.19H29.3754H29.1754V518.306H29.3754ZM29.3754 512.19V512.39H30.9621V512.19V511.99H29.3754V512.19ZM30.9621 512.19L30.8469 512.354L39.9825 518.787L40.0977 518.624L40.2128 518.46L31.0772 512.027L30.9621 512.19ZM40.0977 518.624H39.8977V520.037H40.0977H40.2977V518.624H40.0977ZM40.0977 520.037V519.837H30.9621V520.037V520.237H40.0977V520.037ZM30.9621 520.037H30.7621V521.941H30.9621H31.1621V520.037H30.9621ZM30.9621 521.941V521.741H29.3754V521.941V522.141H30.9621V521.941ZM29.3754 521.941H29.5754V520.037H29.3754H29.1754V521.941H29.3754ZM29.3754 520.037V519.837H26V520.037V520.237H29.3754V520.037ZM26 520.037H26.2V518.306H26H25.8V520.037H26ZM30.9621 518.306V518.506H37.3185V518.306V518.106H30.9621V518.306ZM37.3185 518.306L37.4326 518.142L31.0762 513.728L30.9621 513.892L30.848 514.057L37.2045 518.471L37.3185 518.306ZM30.9621 513.892H30.7621V518.306H30.9621H31.1621V513.892H30.9621ZM26 524.692V524.492H25.8V524.692H26ZM27.9714 524.692H28.1714V524.492H27.9714V524.692ZM27.9714 526.663V526.863H28.1714V526.663H27.9714ZM26 526.663H25.8V526.863H26V526.663ZM26 524.692V524.892H27.9714V524.692V524.492H26V524.692ZM27.9714 524.692H27.7714V526.663H27.9714H28.1714V524.692H27.9714ZM27.9714 526.663V526.463H26V526.663V526.863H27.9714V526.663ZM26 526.663H26.2V524.692H26H25.8V526.663H26ZM29.2888 536.674L29.4873 536.698L29.5069 536.54L29.3565 536.486L29.2888 536.674ZM29.0676 538.462L29.0155 538.656L29.2379 538.716L29.2661 538.487L29.0676 538.462ZM26.6347 536.895L26.7942 536.774L26.6347 536.895ZM27.1444 530.414L27.007 530.268L27.006 530.269L27.1444 530.414ZM35.0202 530.433L34.8838 530.579L35.0202 530.433ZM35.0491 537.222L34.9128 537.076L35.0491 537.222ZM30.664 538.511H30.464V538.704L30.6577 538.71L30.664 538.511ZM30.664 530.894H30.864V530.683L30.6526 530.695L30.664 530.894ZM27.6925 535.606L27.853 535.487L27.853 535.487L27.6925 535.606ZM32.0872 530.99L32.1001 530.791L31.8872 530.777V530.99H32.0872ZM32.0872 536.693H31.8872V536.912L32.105 536.892L32.0872 536.693ZM34.0201 536.039L33.8926 535.885L33.8918 535.886L34.0201 536.039ZM34.222 531.885L34.3651 531.745L34.3643 531.744L34.222 531.885ZM29.2888 536.674L29.0903 536.649L28.8692 538.438L29.0676 538.462L29.2661 538.487L29.4873 536.698L29.2888 536.674ZM29.0676 538.462L29.1198 538.269C28.1117 537.997 27.3409 537.497 26.7942 536.774L26.6347 536.895L26.4752 537.016C27.0824 537.819 27.9336 538.363 29.0155 538.656L29.0676 538.462ZM26.6347 536.895L26.7942 536.774C26.2493 536.054 25.9692 535.125 25.9692 533.972H25.7692H25.5692C25.5692 535.191 25.8661 536.21 26.4752 537.016L26.6347 536.895ZM25.7692 533.972H25.9692C25.9692 532.522 26.4123 531.392 27.2827 530.558L27.1444 530.414L27.006 530.269C26.0429 531.192 25.5692 532.434 25.5692 533.972H25.7692ZM27.1444 530.414L27.2817 530.559C28.1574 529.732 29.3942 529.306 31.0198 529.306V529.106V528.906C29.3245 528.906 27.9776 529.351 27.007 530.268L27.1444 530.414ZM31.0198 529.106V529.306C32.7041 529.306 33.9827 529.739 34.8838 530.579L35.0202 530.433L35.1566 530.286C34.1601 529.357 32.7717 528.906 31.0198 528.906V529.106ZM35.0202 530.433L34.8838 530.579C35.7883 531.422 36.2434 532.515 36.2434 533.875H36.4434H36.6434C36.6434 532.415 36.1498 531.213 35.1566 530.286L35.0202 530.433ZM36.4434 533.875H36.2434C36.2434 535.19 35.7984 536.251 34.9128 537.076L35.0491 537.222L35.1853 537.368C36.1589 536.462 36.6434 535.292 36.6434 533.875H36.4434ZM35.0491 537.222L34.9128 537.076C34.031 537.897 32.778 538.32 31.1256 538.32V538.52V538.72C32.8453 538.72 34.208 538.278 35.1853 537.368L35.0491 537.222ZM31.1256 538.52V538.32C31.0262 538.32 30.8749 538.317 30.6702 538.311L30.664 538.511L30.6577 538.71C30.8633 538.717 31.0197 538.72 31.1256 538.72V538.52ZM30.664 538.511H30.864V530.894H30.664H30.464V538.511H30.664ZM30.664 530.894L30.6526 530.695C29.5004 530.76 28.5898 531.088 27.9485 531.702L28.0868 531.846L28.225 531.991C28.7762 531.463 29.5838 531.156 30.6754 531.094L30.664 530.894ZM28.0868 531.846L27.9485 531.702C27.3114 532.312 26.9924 533.076 26.9924 533.981H27.1924H27.3924C27.3924 533.181 27.6697 532.522 28.225 531.991L28.0868 531.846ZM27.1924 533.981H26.9924C26.9924 534.653 27.1696 535.238 27.5319 535.726L27.6925 535.606L27.853 535.487C27.5487 535.077 27.3924 534.579 27.3924 533.981H27.1924ZM27.6925 535.606L27.5319 535.726C27.8963 536.216 28.4672 536.591 29.2211 536.862L29.2888 536.674L29.3565 536.486C28.6488 536.231 28.1554 535.894 27.853 535.487L27.6925 535.606ZM32.0872 530.99H31.8872V536.693H32.0872H32.2872V530.99H32.0872ZM32.0872 536.693L32.105 536.892C32.9842 536.813 33.6748 536.588 34.1484 536.193L34.0201 536.039L33.8918 535.886C33.5063 536.208 32.9083 536.419 32.0694 536.494L32.0872 536.693ZM34.0201 536.039L34.1476 536.193C34.861 535.603 35.2202 534.832 35.2202 533.895H35.0202H34.8202C34.8202 534.714 34.5126 535.372 33.8926 535.885L34.0201 536.039ZM35.0202 533.895H35.2202C35.2202 533.05 34.9355 532.329 34.3651 531.745L34.222 531.885L34.079 532.025C34.5728 532.53 34.8202 533.149 34.8202 533.895H35.0202ZM34.222 531.885L34.3643 531.744C33.7918 531.165 33.0308 530.851 32.1001 530.791L32.0872 530.99L32.0743 531.19C32.9258 531.245 33.5881 531.528 34.0798 532.025L34.222 531.885ZM26 540.626V540.426H25.8V540.626H26ZM36.2126 540.626H36.4126V540.426H36.2126V540.626ZM36.2126 542.184V542.384H36.4126V542.184H36.2126ZM34.6644 542.184V541.984L34.5682 542.359L34.6644 542.184ZM36.0972 543.28L36.2627 543.168L36.2617 543.166L36.0972 543.28ZM35.8857 546.175L35.8161 546.362L35.9698 546.419L36.0559 546.28L35.8857 546.175ZM34.2797 545.579L34.1076 545.477L33.9858 545.683L34.2101 545.766L34.2797 545.579ZM34.3086 543.29L34.1482 543.409L34.1498 543.412L34.3086 543.29ZM33.3662 542.646L33.4267 542.455L33.4258 542.455L33.3662 542.646ZM26 542.357H25.8V542.557H26V542.357ZM26 540.626V540.826H36.2126V540.626V540.426H26V540.626ZM36.2126 540.626H36.0126V542.184H36.2126H36.4126V540.626H36.2126ZM36.2126 542.184V541.984H34.6644V542.184V542.384H36.2126V542.184ZM34.6644 542.184L34.5682 542.359C35.288 542.754 35.7301 543.101 35.9328 543.394L36.0972 543.28L36.2617 543.166C36.0028 542.793 35.4897 542.409 34.7606 542.009L34.6644 542.184ZM36.0972 543.28L35.9318 543.393C36.1405 543.7 36.2434 544.033 36.2434 544.396H36.4434H36.6434C36.6434 543.951 36.5156 543.54 36.2627 543.168L36.0972 543.28ZM36.4434 544.396H36.2434C36.2434 544.935 36.072 545.492 35.7155 546.07L35.8857 546.175L36.0559 546.28C36.443 545.652 36.6434 545.024 36.6434 544.396H36.4434ZM35.8857 546.175L35.9553 545.987L34.3494 545.391L34.2797 545.579L34.2101 545.766L35.8161 546.362L35.8857 546.175ZM34.2797 545.579L34.4519 545.68C34.7172 545.231 34.8548 544.774 34.8548 544.309H34.6548H34.4548C34.4548 544.691 34.3424 545.08 34.1076 545.477L34.2797 545.579ZM34.6548 544.309H34.8548C34.8548 543.887 34.7248 543.504 34.4674 543.168L34.3086 543.29L34.1498 543.412C34.354 543.678 34.4548 543.975 34.4548 544.309H34.6548ZM34.3086 543.29L34.469 543.17C34.2165 542.831 33.8652 542.594 33.4267 542.455L33.3662 542.646L33.3057 542.836C33.675 542.953 33.952 543.146 34.1482 543.409L34.3086 543.29ZM33.3662 542.646L33.4258 542.455C32.7887 542.256 32.0952 542.157 31.3467 542.157V542.357V542.557C32.06 542.557 32.7128 542.651 33.3065 542.836L33.3662 542.646ZM31.3467 542.357V542.157H26V542.357V542.557H31.3467V542.357ZM26 542.357H26.2V540.626H26H25.8V542.357H26ZM26 547.185V546.985H25.8V547.185H26ZM36.2126 547.185H36.4126V546.985H36.2126V547.185ZM36.2126 548.742V548.942H36.4126V548.742H36.2126ZM34.6644 548.742V548.542L34.5682 548.918L34.6644 548.742ZM36.0972 549.839L36.2627 549.726L36.2617 549.725L36.0972 549.839ZM35.8857 552.733L35.8161 552.921L35.9698 552.978L36.0559 552.838L35.8857 552.733ZM34.2797 552.137L34.1076 552.035L33.9858 552.241L34.2101 552.325L34.2797 552.137ZM34.3086 549.848L34.1482 549.968L34.1498 549.97L34.3086 549.848ZM33.3662 549.204L33.4267 549.013L33.4258 549.013L33.3662 549.204ZM26 548.916H25.8V549.116H26V548.916ZM26 547.185V547.385H36.2126V547.185V546.985H26V547.185ZM36.2126 547.185H36.0126V548.742H36.2126H36.4126V547.185H36.2126ZM36.2126 548.742V548.542H34.6644V548.742V548.942H36.2126V548.742ZM34.6644 548.742L34.5682 548.918C35.288 549.313 35.7301 549.66 35.9328 549.953L36.0972 549.839L36.2617 549.725C36.0028 549.351 35.4897 548.967 34.7606 548.567L34.6644 548.742ZM36.0972 549.839L35.9318 549.951C36.1405 550.258 36.2434 550.591 36.2434 550.954H36.4434H36.6434C36.6434 550.51 36.5156 550.099 36.2627 549.726L36.0972 549.839ZM36.4434 550.954H36.2434C36.2434 551.493 36.072 552.05 35.7155 552.628L35.8857 552.733L36.0559 552.838C36.443 552.211 36.6434 551.582 36.6434 550.954H36.4434ZM35.8857 552.733L35.9553 552.546L34.3494 551.95L34.2797 552.137L34.2101 552.325L35.8161 552.921L35.8857 552.733ZM34.2797 552.137L34.4519 552.239C34.7172 551.79 34.8548 551.332 34.8548 550.868H34.6548H34.4548C34.4548 551.25 34.3424 551.638 34.1076 552.035L34.2797 552.137ZM34.6548 550.868H34.8548C34.8548 550.445 34.7248 550.063 34.4674 549.727L34.3086 549.848L34.1498 549.97C34.354 550.236 34.4548 550.534 34.4548 550.868H34.6548ZM34.3086 549.848L34.469 549.729C34.2165 549.39 33.8652 549.153 33.4267 549.013L33.3662 549.204L33.3057 549.395C33.675 549.512 33.952 549.704 34.1482 549.968L34.3086 549.848ZM33.3662 549.204L33.4258 549.013C32.7887 548.814 32.0952 548.716 31.3467 548.716V548.916V549.116C32.06 549.116 32.7128 549.209 33.3065 549.395L33.3662 549.204ZM31.3467 548.916V548.716H26V548.916V549.116H31.3467V548.916ZM26 548.916H26.2V547.185H26H25.8V548.916H26ZM35.3087 554.695L35.4602 554.564L35.4599 554.564L35.3087 554.695ZM35.0587 561.35L34.9198 561.206L34.9193 561.206L35.0587 561.35ZM28.1445 562.09L28.2375 561.913L28.2369 561.913L28.1445 562.09ZM26.3943 560.369L26.5695 560.272L26.5691 560.272L26.3943 560.369ZM27.1444 554.435L27.006 554.291L27.0055 554.291L27.1444 554.435ZM28.1637 555.753L28.0322 555.602L28.0315 555.603L28.1637 555.753ZM28.1733 560.051L28.3048 559.901L28.1733 560.051ZM34.0297 560.042L33.8982 559.891L33.8967 559.892L34.0297 560.042ZM34.0393 555.753L33.9071 555.903L34.0393 555.753ZM31.1063 553.118V553.318C32.9614 553.318 34.2975 553.833 35.1575 554.826L35.3087 554.695L35.4599 554.564C34.4992 553.455 33.0337 552.918 31.1063 552.918V553.118ZM35.3087 554.695L35.1572 554.826C35.8795 555.664 36.2434 556.687 36.2434 557.907H36.4434H36.6434C36.6434 556.601 36.2509 555.482 35.4602 554.564L35.3087 554.695ZM36.4434 557.907H36.2434C36.2434 559.262 35.8 560.356 34.9198 561.206L35.0587 561.35L35.1976 561.493C36.1637 560.561 36.6434 559.359 36.6434 557.907H36.4434ZM35.0587 561.35L34.9193 561.206C34.0492 562.052 32.8351 562.486 31.2506 562.486V562.686V562.886C32.91 562.886 34.2347 562.429 35.1981 561.493L35.0587 561.35ZM31.2506 562.686V562.486C29.9529 562.486 28.9539 562.289 28.2375 561.913L28.1445 562.09L28.0514 562.267C28.848 562.686 29.9198 562.886 31.2506 562.886V562.686ZM28.1445 562.09L28.2369 561.913C27.5225 561.54 26.9676 560.995 26.5695 560.272L26.3943 560.369L26.2191 560.465C26.6544 561.255 27.2662 561.858 28.052 562.267L28.1445 562.09ZM26.3943 560.369L26.5691 560.272C26.1695 559.552 25.9692 558.765 25.9692 557.907H25.7692H25.5692C25.5692 558.831 25.7856 559.685 26.2194 560.466L26.3943 560.369ZM25.7692 557.907H25.9692C25.9692 556.524 26.4105 555.422 27.2832 554.579L27.1444 554.435L27.0055 554.291C26.0447 555.219 25.5692 556.43 25.5692 557.907H25.7692ZM27.1444 554.435L27.2827 554.58C28.1506 553.748 29.4145 553.318 31.1063 553.318V553.118V552.918C29.3491 552.918 27.9717 553.366 27.006 554.291L27.1444 554.435ZM31.1063 554.897V554.697C29.7738 554.697 28.7371 554.987 28.0322 555.602L28.1637 555.753L28.2952 555.903C28.8981 555.377 29.8231 555.097 31.1063 555.097V554.897ZM28.1637 555.753L28.0315 555.603C27.3407 556.211 26.9924 556.984 26.9924 557.907H27.1924H27.3924C27.3924 557.099 27.6916 556.435 28.2959 555.903L28.1637 555.753ZM27.1924 557.907H26.9924C26.9924 558.824 27.3449 559.594 28.0418 560.202L28.1733 560.051L28.3048 559.901C27.6939 559.368 27.3924 558.707 27.3924 557.907H27.1924ZM28.1733 560.051L28.0418 560.202C28.7475 560.818 29.801 561.107 31.164 561.107V560.907V560.707C29.8473 560.707 28.907 560.426 28.3048 559.901L28.1733 560.051ZM31.164 560.907V561.107C32.454 561.107 33.465 560.813 34.1628 560.191L34.0297 560.042L33.8967 559.892C33.2994 560.425 32.3999 560.707 31.164 560.707V560.907ZM34.0297 560.042L34.1612 560.192C34.8578 559.585 35.2106 558.818 35.2106 557.907H35.0106H34.8106C34.8106 558.701 34.5095 559.358 33.8982 559.891L34.0297 560.042ZM35.0106 557.907H35.2106C35.2106 556.984 34.8623 556.211 34.1716 555.603L34.0393 555.753L33.9071 555.903C34.5114 556.435 34.8106 557.099 34.8106 557.907H35.0106ZM34.0393 555.753L34.1716 555.603C33.4727 554.987 32.4386 554.697 31.1063 554.697V554.897V555.097C32.3897 555.097 33.3109 555.378 33.9071 555.903L34.0393 555.753ZM26 564.706V564.506H25.8V564.706H26ZM36.2126 564.706H36.4126V564.506H36.2126V564.706ZM36.2126 566.264V566.464H36.4126V566.264H36.2126ZM34.6644 566.264V566.064L34.5682 566.439L34.6644 566.264ZM36.0972 567.36L36.2627 567.247L36.2617 567.246L36.0972 567.36ZM35.8857 570.254L35.8161 570.442L35.9698 570.499L36.0559 570.359L35.8857 570.254ZM34.2797 569.658L34.1076 569.556L33.9858 569.762L34.2101 569.846L34.2797 569.658ZM34.3086 567.369L34.1482 567.489L34.1498 567.491L34.3086 567.369ZM33.3662 566.725L33.4267 566.535L33.4258 566.534L33.3662 566.725ZM26 566.437H25.8V566.637H26V566.437ZM26 564.706V564.906H36.2126V564.706V564.506H26V564.706ZM36.2126 564.706H36.0126V566.264H36.2126H36.4126V564.706H36.2126ZM36.2126 566.264V566.064H34.6644V566.264V566.464H36.2126V566.264ZM34.6644 566.264L34.5682 566.439C35.288 566.834 35.7301 567.181 35.9328 567.474L36.0972 567.36L36.2617 567.246C36.0028 566.872 35.4897 566.488 34.7606 566.088L34.6644 566.264ZM36.0972 567.36L35.9318 567.472C36.1405 567.779 36.2434 568.112 36.2434 568.475H36.4434H36.6434C36.6434 568.031 36.5156 567.62 36.2627 567.247L36.0972 567.36ZM36.4434 568.475H36.2434C36.2434 569.014 36.072 569.572 35.7155 570.149L35.8857 570.254L36.0559 570.359C36.443 569.732 36.6434 569.103 36.6434 568.475H36.4434ZM35.8857 570.254L35.9553 570.067L34.3494 569.471L34.2797 569.658L34.2101 569.846L35.8161 570.442L35.8857 570.254ZM34.2797 569.658L34.4519 569.76C34.7172 569.311 34.8548 568.853 34.8548 568.389H34.6548H34.4548C34.4548 568.771 34.3424 569.159 34.1076 569.556L34.2797 569.658ZM34.6548 568.389H34.8548C34.8548 567.966 34.7248 567.584 34.4674 567.248L34.3086 567.369L34.1498 567.491C34.354 567.758 34.4548 568.055 34.4548 568.389H34.6548ZM34.3086 567.369L34.469 567.25C34.2165 566.911 33.8652 566.674 33.4267 566.535L33.3662 566.725L33.3057 566.916C33.675 567.033 33.952 567.225 34.1482 567.489L34.3086 567.369ZM33.3662 566.725L33.4258 566.534C32.7887 566.335 32.0952 566.237 31.3467 566.237V566.437V566.637C32.06 566.637 32.7128 566.73 33.3065 566.916L33.3662 566.725ZM31.3467 566.437V566.237H26V566.437V566.637H31.3467V566.437ZM26 566.437H26.2V564.706H26H25.8V566.437H26Z" fill="#C738C6" mask="url(#path-2-outside-1_477_422)"/>
</g>
<defs>
<filter id="filter0_d_477_422" x="0.382089" y="0.0828738" width="80.9182" height="1337.91" filterUnits="userSpaceOnUse" color-interpolation-filters="sRGB">
<feFlood flood-opacity="0" result="BackgroundImageFix"/>
<feColorMatrix in="SourceAlpha" type="matrix" values="0 0 0 0 0 0 0 0 0 0 0 0 0 0 0 0 0 0 127 0" result="hardAlpha"/>
<feOffset dx="6.56482" dy="1.31296"/>
<feGaussianBlur stdDeviation="9.84722"/>
<feComposite in2="hardAlpha" operator="out"/>
<feColorMatrix type="matrix" values="0 0 0 0 0 0 0 0 0 0 0 0 0 0 0 0 0 0 0.2 0"/>
<feBlend mode="normal" in2="BackgroundImageFix" result="effect1_dropShadow_477_422"/>
<feBlend mode="normal" in="SourceGraphic" in2="effect1_dropShadow_477_422" result="shape"/>
</filter>
</defs>
</svg>
