<?xml version="1.0" encoding="UTF-8"?>
<svg id="Layer_2" data-name="Layer 2" xmlns="http://www.w3.org/2000/svg" viewBox="0 0 418.6 287.21">
  <defs>
    <style>
      .cls-1 {
        stroke: #000;
        stroke-linejoin: round;
        stroke-width: 8px;
      }
    </style>
  </defs>
  <g id="Layer_1-2" data-name="Layer 1">
    <path class="cls-1" d="M118.12,265.12c37.98-15.71,77.65-45.56,105.65-80.08l-5.1-.06c-61.57-.69-110.74-32.96-110.28-74.15C109.02,54.35,177.98,3.31,239.56,4.01c2.13.02,2.1,2.57-.03,2.55-59.45-.67-122.93,54.25-123.54,108.61-.41,36.1,42.83,66.59,102.71,67.27l7.22.08,16.38-20.62c54.27-67.35,108.39-144.31,155.11-143.79,11.47.13,17.33,7.84,17.2,18.88-.46,41.19-95.73,127.19-178.75,144.94-30.99,36.6-64.91,69.36-110.97,85.82,18.62,6.58,35.96,12.72,52.52,12.91,56.49.64,118.05-41.56,118.05-41.56l2.97.03s-62.02,44.74-121.05,44.07c-17.41-.2-36.46-6.36-56.33-13.8-19.18,6.15-40.88,9.73-64.67,9.46-70.49-.79-60.3-38.48-25.05-38.08,28.45.32,58.46,12.98,86.8,24.34ZM114.28,266.78c-27.91-10.93-56.23-23.14-82.98-23.44-30.99-.35-41.98,32.23,25.11,32.99,22.09.25,40.81-3.36,57.87-9.55ZM238.44,178.56c80.91-19.05,171.04-102.13,171.48-141.63.1-8.92-3.64-16.18-12.56-16.28-44.59-.5-92.62,77.53-151.18,148.65l-7.75,9.26Z"/>
  </g>
</svg>