<?xml version="1.0" encoding="UTF-8"?>
<svg id="Layer_2" data-name="Layer 2" xmlns="http://www.w3.org/2000/svg" viewBox="0 0 601.62 305.42">
  <defs>
    <style>
      .cls-1 {
        stroke: #000;
        stroke-linejoin: round;
        stroke-width: 8px;
      }
    </style>
  </defs>
  <g id="Layer_1-2" data-name="Layer 1">
    <g>
      <path class="cls-1" d="M228.9,58.02c18.06,3.23,31.78,15.36,32.46,38.31,1.44,48.82-48.4,100.84-100.97,102.39-29.63.88-58.84-12.05-59.92-48.77-1.44-48.82,47.88-118.37,157.21-121.6,84.71-2.5,195.7,43.3,252.45,41.62,90.98-2.69,102.09-64.83,55.35-63.45-1.67.05-1.75-2.46-.07-2.51,49.65-1.47,47.52,66.11-46.22,70.71-63.79,3.13-177.14-46.37-261.43-43.87-107.67,3.18-156.2,71.02-154.78,119.02,1.02,34.63,26.83,45.99,53.54,45.2,49.24-1.46,99.56-51.39,98.07-101.89-.56-18.78-11.32-29.73-26.44-32.63-2.95-.75-2.16-2.86.77-2.53Z"/>
      <path class="cls-1" d="M100.27,300.99c-48.79,3.94-90.15-19.47-95.32-50.63-8.18-49.24,38.02-99.6,80.71-106.68,28.85-4.79,45.72,10.33,57.61,37.47,22.68,51.76-47.33,96.51-92.51,85.37h0c-.34-1.07.65-2.1,1.73-1.79,35.41,10.07,110.41-26.97,88.09-83.14-10.23-25.73-26.78-39.83-54.48-35.23C44.18,153.32-.09,203.36,7.64,249.91c4.43,26.67,36.36,49.55,81.69,47.36,6.63-.32,19.57-1.1,25.98-2.82,77.64-20.74,124.26-81.59,211.42-258.95.12-.24.35-.39.62-.39h0c.52-.01.87.53.65,1.01-73.68,156.26-127.15,255.9-227.73,264.88Z"/>
    </g>
  </g>
</svg>